<svg width="28" height="28" viewBox="0 0 28 28" fill="none" xmlns="http://www.w3.org/2000/svg">
<circle cx="14" cy="14" r="14" fill="url(#paint0_linear_310_10)"/>
<g clip-path="url(#clip0_310_10)">
<path d="M18.6807 9.78006C18.5738 9.67306 18.4522 9.61954 18.3167 9.61928C18.2878 9.61928 18.2453 9.62652 18.1879 9.64073L13.9477 10.6901L15.7786 5.73231C15.8142 5.66094 15.8322 5.59676 15.8322 5.53957C15.8322 5.41828 15.7856 5.31304 15.693 5.22377C15.6002 5.1344 15.4859 5.08984 15.3504 5.08984H11.8382C11.724 5.08984 11.6241 5.12191 11.5384 5.18616C11.4527 5.25048 11.3955 5.33262 11.3671 5.43245L9.21479 14.2667C9.17905 14.4378 9.22544 14.5771 9.35397 14.6843C9.44672 14.763 9.55729 14.802 9.68582 14.802C9.74298 14.802 9.78581 14.7987 9.81435 14.7915L14.1617 13.7099L12.0523 22.362C12.0238 22.4762 12.0398 22.5833 12.1006 22.6831C12.1613 22.7832 12.2523 22.851 12.3736 22.8867C12.445 22.9008 12.4951 22.908 12.5236 22.908C12.7307 22.908 12.8804 22.8189 12.9733 22.6404L18.7556 10.2512C18.8342 10.0799 18.8094 9.92277 18.6807 9.78006Z" fill="#23243C"/>
</g>
<defs>
<linearGradient id="paint0_linear_310_10" x1="6.36364" y1="25.4545" x2="21" y2="2.54545" gradientUnits="userSpaceOnUse">
<stop stop-color="#1E8AC0"/>
<stop offset="1" stop-color="#2FD2CD"/>
</linearGradient>
<clipPath id="clip0_310_10">
<rect width="17.8182" height="17.8182" fill="white" transform="translate(5.09082 5.08984)"/>
</clipPath>
</defs>
</svg>
