<svg width="28" height="28" viewBox="0 0 28 28" fill="none" xmlns="http://www.w3.org/2000/svg">
<circle cx="14" cy="14" r="14" fill="url(#paint0_linear_310_20)"/>
<g clip-path="url(#clip0_310_20)">
<path d="M14.685 15.5585C14.8127 18.3656 14.3393 20.893 12.2752 22.9069C12.0285 22.6602 11.7875 22.4192 11.4877 22.1194C13.5246 20.4455 14.1844 18.1935 14.2748 15.7693C14.0123 16.4091 13.7842 17.1363 13.4256 17.7918C12.9608 18.6453 12.2106 18.9566 11.3256 18.7931C10.4707 18.6367 10.0246 18.0472 9.80515 17.2683C9.71335 16.9412 9.58568 16.7705 9.22565 16.6759C8.4023 16.4607 7.78981 15.9716 7.66215 15.0636C7.52875 14.1212 7.96337 13.4542 8.75229 12.9909C9.87974 12.3296 11.142 12.1805 12.4057 12.0399C12.6008 12.0184 12.7959 12.0083 12.9322 11.9968C12.0213 11.8348 11.0516 11.7014 10.1035 11.4776C9.60146 11.36 9.10659 11.1333 8.65906 10.8708C7.90886 10.4305 7.53161 9.75344 7.66071 8.8598C7.78407 8.00346 8.34636 7.51146 9.12524 7.28196C9.5111 7.16864 9.72052 7.02233 9.8281 6.60635C10.0447 5.76723 10.5883 5.20637 11.4891 5.1031C12.3627 5.00269 12.9938 5.41293 13.4371 6.133C14.094 7.19733 14.2719 8.39936 14.4039 9.61143C14.4239 9.7893 14.4325 9.9686 14.5588 10.1651C14.5774 10.0102 14.5989 9.85672 14.6133 9.7018C14.7295 8.52415 14.903 7.35798 15.484 6.30226C16.0362 5.30104 16.8524 4.90945 17.8206 5.15904C18.6354 5.36846 19.0485 5.96661 19.2392 6.72684C19.3181 7.03954 19.4659 7.16003 19.7614 7.24036C20.6091 7.467 21.2359 7.94896 21.365 8.87989C21.4999 9.85241 21.0236 10.5151 20.2146 10.9741C19.0972 11.6067 17.8507 11.753 16.6057 11.8921C16.4264 11.9122 16.2456 11.9251 16.0362 11.9452C16.9212 12.0843 17.7847 12.1747 18.6239 12.3698C19.1976 12.5032 19.7642 12.7341 20.2864 13.011C21.0724 13.4284 21.4855 14.1069 21.3708 15.0292C21.2574 15.94 20.6579 16.4392 19.836 16.6658C19.4673 16.7677 19.3138 16.9312 19.2149 17.2855C18.9767 18.1361 18.4618 18.7242 17.5223 18.8203C16.5885 18.9164 15.9329 18.466 15.5327 17.6843C15.2057 17.0517 14.9963 16.356 14.685 15.5585Z" fill="#23243C"/>
</g>
<defs>
<linearGradient id="paint0_linear_310_20" x1="3.18182" y1="23.5455" x2="24.1818" y2="3.81818" gradientUnits="userSpaceOnUse">
<stop stop-color="#49C628"/>
<stop offset="1" stop-color="#70F570"/>
</linearGradient>
<clipPath id="clip0_310_20">
<rect width="13.7516" height="17.8182" fill="white" transform="translate(7.63672 5.08984)"/>
</clipPath>
</defs>
</svg>
