<svg width="28" height="28" viewBox="0 0 28 28" fill="none" xmlns="http://www.w3.org/2000/svg">
<circle cx="14" cy="14" r="14" fill="url(#paint0_linear_310_53)"/>
<path d="M16.5 14C16.5 14.663 16.2366 15.2989 15.7678 15.7678C15.2989 16.2366 14.663 16.5 14 16.5C13.337 16.5 12.7011 16.2366 12.2322 15.7678C11.7634 15.2989 11.5 14.663 11.5 14C11.5 13.337 11.7634 12.7011 12.2322 12.2322C12.7011 11.7634 13.337 11.5 14 11.5C14.663 11.5 15.2989 11.7634 15.7678 12.2322C16.2366 12.7011 16.5 13.337 16.5 14Z" fill="#32324E"/>
<path fill-rule="evenodd" clip-rule="evenodd" d="M6 14C6 14 9 8.5 14 8.5C19 8.5 22 14 22 14C22 14 19 19.5 14 19.5C9 19.5 6 14 6 14ZM14 17.5C14.9283 17.5 15.8185 17.1313 16.4749 16.4749C17.1313 15.8185 17.5 14.9283 17.5 14C17.5 13.0717 17.1313 12.1815 16.4749 11.5251C15.8185 10.8687 14.9283 10.5 14 10.5C13.0717 10.5 12.1815 10.8687 11.5251 11.5251C10.8687 12.1815 10.5 13.0717 10.5 14C10.5 14.9283 10.8687 15.8185 11.5251 16.4749C12.1815 17.1313 13.0717 17.5 14 17.5Z" fill="#32324E"/>
<defs>
<linearGradient id="paint0_linear_310_53" x1="3.92913" y1="26.0909" x2="22.8117" y2="25.1242" gradientUnits="userSpaceOnUse">
<stop stop-color="#F58555"/>
<stop offset="0.395833" stop-color="#F88148"/>
<stop offset="0.963542" stop-color="#FCCF31"/>
</linearGradient>
</defs>
</svg>
