<svg xmlns="http://www.w3.org/2000/svg">
    <symbol id="clever">
        <g clip-path="url(#a)">
            <path fill="currentColor"
                  d="M7.685 10.559c.128 2.807-.346 5.334-2.41 7.348l-.787-.788c2.037-1.674 2.696-3.925 2.787-6.35-.263.64-.49 1.367-.85 2.023-.464.853-1.214 1.165-2.1 1.001-.854-.156-1.3-.746-1.52-1.525-.092-.327-.22-.498-.58-.592-.823-.215-1.435-.704-1.563-1.612-.133-.943.301-1.61 1.09-2.073 1.128-.661 2.39-.81 3.654-.951.195-.022.39-.032.526-.043-.91-.162-1.88-.296-2.828-.52-.503-.117-.997-.344-1.445-.606C.91 5.43.532 4.753.661 3.86c.123-.857.685-1.349 1.464-1.578.386-.113.596-.26.703-.676.217-.839.76-1.4 1.661-1.503.874-.1 1.505.31 1.948 1.03.657 1.064.835 2.266.967 3.478.02.178.029.358.155.554.018-.155.04-.308.054-.463.116-1.178.29-2.344.871-3.4C9.036.301 9.852-.09 10.821.16c.814.21 1.228.808 1.418 1.568.08.313.227.433.522.513.848.227 1.475.709 1.604 1.64.135.972-.341 1.635-1.15 2.094-1.118.633-2.364.779-3.61.918-.179.02-.36.033-.569.053.885.14 1.749.23 2.588.425.574.133 1.14.364 1.662.641.786.417 1.2 1.096 1.085 2.018-.114.911-.713 1.41-1.535 1.637-.369.102-.522.265-.621.62-.238.85-.753 1.438-1.693 1.534-.934.096-1.59-.354-1.99-1.136-.326-.632-.536-1.328-.847-2.125Z"/>
        </g>
        <defs>
            <clipPath id="a">
                <path fill="#fff" d="M.637.09h13.752v17.818H.637z"/>
            </clipPath>
        </defs>
    </symbol>
    <symbol id="update">
        <g clip-path="url(#clip0_321_23710)">
            <path
                    d="M10.0001 19.9998C5.00384 19.9998 0.939453 15.9311 0.939453 10.9362C0.939453 5.94067 5.00384 1.87416 10.0001 1.87416C10.332 1.87416 10.6674 1.89326 11.0007 1.93076V0.466055C11.0007 0.277836 11.1167 0.1066 11.2879 0.0337183C11.4663 -0.0356255 11.6637 0.00329192 11.7995 0.138441L15.0099 3.35585C15.1924 3.53841 15.1924 3.82993 15.0099 4.01532L11.8009 7.2398C11.6644 7.37283 11.4663 7.41387 11.2879 7.34099C11.1167 7.2674 11.0007 7.09758 11.0007 6.91007V5.28544C10.6688 5.22459 10.3348 5.19699 10.0001 5.19699C6.83508 5.19699 4.25946 7.77191 4.25946 10.9362C4.25946 14.0999 6.83579 16.6769 10.0001 16.6769C13.1645 16.6769 15.7394 14.0992 15.7394 10.9362C15.7394 10.6794 15.9481 10.4692 16.2078 10.4692H18.5917C18.8499 10.4692 19.0601 10.6794 19.0601 10.9362C19.0601 15.9311 14.9929 19.9998 10.0001 19.9998Z"
                    fill="currentColor"/>
        </g>
        <defs>
            <clipPath id="clip0_321_23710">
                <rect width="20" height="20" fill="currentColor"/>
            </clipPath>
        </defs>
    </symbol>
    <symbol id="rating">
        <g clip-path="url(#a)">
            <path fill="currentColor"
                  d="M17.61 3.818c-.2-.2-.443-.3-.729-.3h-3.084V2.491a1.65 1.65 0 0 0-.503-1.21 1.65 1.65 0 0 0-1.21-.504H5.916a1.65 1.65 0 0 0-1.21.504 1.65 1.65 0 0 0-.503 1.21v1.027H1.119c-.286 0-.528.1-.728.3-.2.2-.3.443-.3.728v1.371c0 .507.148 1.017.444 1.531.296.514.696.978 1.2 1.392.503.414 1.12.762 1.852 1.044.732.282 1.5.441 2.308.477.3.385.639.724 1.017 1.017.271.243.458.501.562.777.103.274.155.594.155.958 0 .385-.109.71-.326.974-.218.264-.566.396-1.044.396-.536 0-1.012.163-1.43.487-.417.325-.626.734-.626 1.227v.685c0 .1.032.182.096.246a.334.334 0 0 0 .246.096h8.91c.1 0 .181-.032.246-.096a.335.335 0 0 0 .096-.246v-.685c0-.493-.209-.901-.627-1.226a2.267 2.267 0 0 0-1.43-.488c-.477 0-.825-.132-1.043-.396-.218-.264-.326-.589-.326-.974 0-.364.051-.684.155-.958.104-.276.291-.534.562-.777a5.713 5.713 0 0 0 1.017-1.017 7.262 7.262 0 0 0 2.308-.477c.732-.282 1.35-.63 1.852-1.044a5.103 5.103 0 0 0 1.2-1.392c.296-.514.444-1.024.444-1.531v-1.37c0-.286-.1-.529-.3-.729ZM2.472 7.652c-.674-.6-1.012-1.178-1.012-1.735V4.889h2.742c0 1.492.264 2.816.792 3.973-1.006-.207-1.847-.61-2.522-1.21Zm14.065-1.735c0 .557-.337 1.135-1.011 1.735-.675.6-1.516 1.003-2.522 1.21.528-1.157.792-2.48.792-3.973h2.741v1.028Z"/>
        </g>
        <defs>
            <clipPath id="a">
                <path fill="#fff" d="M.09.09H17.91v17.818H.09z"/>
            </clipPath>
        </defs>
    </symbol>

    <symbol id="info">
        <g clip-path="url(#clip0_303_109)">
            <path d="M2.63724 15.3642C1.77765 14.534 1.09201 13.5409 0.62033 12.4429C0.148649 11.3448 -0.0996274 10.1638 -0.110012 8.96883C-0.120396 7.77382 0.107319 6.5887 0.559847 5.48263C1.01238 4.37656 1.68065 3.3717 2.52569 2.52666C3.37072 1.68163 4.37559 1.01335 5.48166 0.560824C6.58772 0.108296 7.77284 -0.11942 8.96785 -0.109035C10.1629 -0.0986508 11.3438 0.149625 12.4419 0.621306C13.5399 1.09299 14.533 1.77863 15.3632 2.63822C17.0027 4.33564 17.9098 6.60906 17.8893 8.96883C17.8688 11.3286 16.9223 13.5859 15.2536 15.2546C13.5849 16.9233 11.3276 17.8698 8.96785 17.8903C6.60808 17.9108 4.33466 17.0036 2.63724 15.3642ZM8.10024 9.90122V13.5012H9.90024V8.10122H8.10024V9.90122ZM8.10024 4.50122V6.30122H9.90024V4.50122H8.10024Z"
                  fill="currentColor"/>
        </g>
        <defs>
            <clipPath id="clip0_303_109">
                <rect width="18" height="18" fill="currentColor"/>
            </clipPath>
        </defs>
    </symbol>

    <symbol id="activity">
        <g clip-path="url(#a)">
            <path fill="currentColor"
                  d="M13.68 4.78a.503.503 0 0 0-.363-.16.592.592 0 0 0-.13.02l-4.24 1.05L10.78.732a.44.44 0 0 0 .053-.192.425.425 0 0 0-.139-.316.475.475 0 0 0-.343-.134H6.838a.486.486 0 0 0-.47.342L4.214 9.267a.4.4 0 0 0 .139.417.496.496 0 0 0 .332.118.57.57 0 0 0 .128-.01L9.162 8.71l-2.11 8.652a.406.406 0 0 0 .049.321c.06.1.151.168.273.204a.92.92 0 0 0 .15.021.47.47 0 0 0 .45-.268l5.782-12.389a.402.402 0 0 0-.075-.47Z"/>
        </g>
        <defs>
            <clipPath id="a">
                <path fill="#fff" d="M.09.09H17.91v17.818H.09z"/>
            </clipPath>
        </defs>
    </symbol>
    <symbol id="eye">
        <path fill="currentColor" d="M10.5 8a2.5 2.5 0 1 1-5 0 2.5 2.5 0 0 1 5 0Z"/>
        <path fill="currentColor" fill-rule="evenodd"
              d="M0 8s3-5.5 8-5.5S16 8 16 8s-3 5.5-8 5.5S0 8 0 8Zm8 3.5a3.5 3.5 0 1 0 0-7 3.5 3.5 0 0 0 0 7Z"
              clip-rule="evenodd"/>
    </symbol>

    <symbol id="down">
        <path d="M10.0004 13.8344C9.80568 13.8348 9.61699 13.7669 9.46706 13.6427L4.46706 9.47604C4.29688 9.3346 4.18986 9.13134 4.16954 8.91098C4.14923 8.69062 4.21728 8.47122 4.35873 8.30104C4.50017 8.13086 4.70343 8.02384 4.92379 8.00353C5.14414 7.98321 5.36355 8.05126 5.53373 8.19271L10.0004 11.926L14.4671 8.32604C14.5523 8.25682 14.6504 8.20513 14.7557 8.17394C14.8609 8.14274 14.9714 8.13266 15.0805 8.14428C15.1897 8.1559 15.2956 8.18898 15.3919 8.24162C15.4883 8.29427 15.5733 8.36544 15.6421 8.45104C15.7184 8.53673 15.7762 8.63725 15.8118 8.74631C15.8475 8.85537 15.8602 8.97062 15.8493 9.08484C15.8383 9.19906 15.8039 9.30979 15.7482 9.41009C15.6925 9.51038 15.6166 9.59809 15.5254 9.66771L10.5254 13.6927C10.3712 13.7973 10.1863 13.8472 10.0004 13.8344Z"
              fill="currentColor"/>
    </symbol>
</svg>
