<svg width="28" height="28" viewBox="0 0 28 28" fill="none" xmlns="http://www.w3.org/2000/svg">
<circle cx="14" cy="14" r="14" fill="url(#paint0_linear_310_5)"/>
<g clip-path="url(#clip0_310_5)">
<path d="M22.6091 8.8182C22.4092 8.61841 22.1666 8.51842 21.8811 8.51842H18.7971V7.49051C18.7971 7.01937 18.6296 6.61615 18.2939 6.28055C17.9584 5.94507 17.5549 5.77734 17.0839 5.77734H10.9161C10.4449 5.77734 10.0415 5.94503 9.706 6.28055C9.37044 6.61611 9.20275 7.01933 9.20275 7.49051V8.51846H6.11877C5.83328 8.51846 5.59058 8.61833 5.39064 8.81824C5.1907 9.01814 5.09082 9.26088 5.09082 9.54644V10.917C5.09082 11.4238 5.23893 11.9343 5.53522 12.4483C5.83144 12.9622 6.23113 13.4264 6.73453 13.8403C7.23774 14.2543 7.85523 14.6024 8.58699 14.8844C9.3188 15.1664 10.0879 15.3253 10.8947 15.3608C11.1945 15.7465 11.5335 16.0855 11.9119 16.378C12.1832 16.6207 12.3705 16.8793 12.474 17.1545C12.5775 17.4292 12.6292 17.7486 12.6292 18.1128C12.6292 18.4983 12.5205 18.823 12.3026 19.0869C12.085 19.3513 11.737 19.4833 11.2587 19.4833C10.7233 19.4833 10.2468 19.6458 9.82917 19.9705C9.41158 20.2955 9.20275 20.7041 9.20275 21.1967V21.8819C9.20275 21.982 9.23482 22.0641 9.29907 22.1283C9.36335 22.1924 9.44538 22.2245 9.54537 22.2245H18.4545C18.5547 22.2245 18.6365 22.1924 18.701 22.1283C18.7649 22.0641 18.797 21.982 18.797 21.8819V21.1967C18.797 20.7041 18.5883 20.2956 18.1704 19.9705C17.7527 19.6458 17.2763 19.4833 16.7408 19.4833C16.2627 19.4833 15.9145 19.3513 15.6971 19.0869C15.4794 18.823 15.3708 18.4984 15.3708 18.1128C15.3708 17.7485 15.4225 17.4292 15.5259 17.1545C15.6296 16.8793 15.817 16.6208 16.0881 16.378C16.4664 16.0853 16.8055 15.7462 17.1051 15.3608C17.9122 15.3253 18.6811 15.1664 19.4131 14.8844C20.1445 14.6024 20.7623 14.2543 21.2654 13.8403C21.7688 13.4263 22.1685 12.9622 22.4647 12.4483C22.7609 11.9343 22.9091 11.4238 22.9091 10.917V9.54644C22.9089 9.26103 22.8089 9.01822 22.6091 8.8182ZM7.47335 12.6516C6.79874 12.052 6.46149 11.4738 6.46149 10.9169V9.88898H9.20272C9.20272 11.3811 9.46675 12.7053 9.99505 13.8617C8.98864 13.6547 8.14803 13.2512 7.47335 12.6516ZM21.5383 10.917C21.5383 11.4739 21.2012 12.0523 20.5266 12.6518C19.8518 13.2514 19.0112 13.6548 18.0048 13.8618C18.5331 12.7054 18.7971 11.3812 18.7971 9.88909H21.5383V10.917Z" fill="#23243C"/>
</g>
<defs>
<linearGradient id="paint0_linear_310_5" x1="3.92913" y1="26.0909" x2="22.8117" y2="25.1242" gradientUnits="userSpaceOnUse">
<stop stop-color="#F58555"/>
<stop offset="0.395833" stop-color="#F88148"/>
<stop offset="0.963542" stop-color="#FCCF31"/>
</linearGradient>
<clipPath id="clip0_310_5">
<rect width="17.8182" height="17.8182" fill="white" transform="translate(5.09082 5.08984)"/>
</clipPath>
</defs>
</svg>
