<svg xmlns="http://www.w3.org/2000/svg" width="20" height="20" fill="none"><g clip-path="url(#a)"><path fill="url(#b)" d="M17.492 20H2.506c-.69 0-1.278-.244-1.766-.732A2.41 2.41 0 0 1 .01 17.5v-15c0-.69.244-1.28.731-1.768A2.405 2.405 0 0 1 2.506 0h14.986c.69 0 1.278.244 1.766.732a2.41 2.41 0 0 1 .731 1.768v15c0 .69-.244 1.28-.731 1.768a2.405 2.405 0 0 1-1.766.732Zm-11.24-5.625a.601.601 0 0 0-.185-.44.6.6 0 0 0-.439-.185H4.38a.6.6 0 0 0-.44.185.601.601 0 0 0-.185.44v2.5c0 .17.062.316.186.44a.6.6 0 0 0 .439.185h1.248a.6.6 0 0 0 .44-.186.601.601 0 0 0 .185-.439v-2.5Zm4.996-5a.6.6 0 0 0-.186-.44.6.6 0 0 0-.439-.185H9.375a.6.6 0 0 0-.44.186.6.6 0 0 0-.185.439v7.5c0 .17.062.316.186.44a.6.6 0 0 0 .439.185h1.248a.6.6 0 0 0 .44-.186.6.6 0 0 0 .185-.439v-7.5Zm4.995-6.25a.601.601 0 0 0-.185-.44.6.6 0 0 0-.44-.185H14.37a.6.6 0 0 0-.44.186.601.601 0 0 0-.185.439v13.75c0 .17.062.316.186.44a.6.6 0 0 0 .439.185h1.248a.6.6 0 0 0 .44-.186.601.601 0 0 0 .185-.439V3.125Z"/></g><defs><linearGradient id="b" x1="14.661" x2="7.538" y1="0" y2="20.755" gradientUnits="userSpaceOnUse"><stop stop-color="#E9628D"/><stop offset="1" stop-color="#EB8567"/></linearGradient><clipPath id="a"><path fill="#fff" d="M0 0h20v20H0z"/></clipPath></defs></svg>